<?xml version="1.0" standalone="no"?>
<!DOCTYPE svg PUBLIC "-//W3C//DTD SVG 20010904//EN"
 "http://www.w3.org/TR/2001/REC-SVG-20010904/DTD/svg10.dtd">
<svg version="1.0" xmlns="http://www.w3.org/2000/svg"
 width="900.000000pt" height="1164.000000pt" viewBox="0 0 900.000000 1164.000000"
 preserveAspectRatio="xMidYMid meet">
<metadata>
Created by potrace 1.10, written by Peter Selinger 2001-2011
</metadata>
<g transform="translate(0.000000,1164.000000) scale(0.100000,-0.100000)"
fill="#000000" stroke="none">
<path d="M4155 9231 c-122 -15 -371 -72 -465 -106 -421 -152 -640 -307 -768
-545 -21 -38 -41 -97 -64 -185 -30 -117 -31 -408 -1 -511 55 -188 158 -326
311 -416 119 -70 235 -108 447 -146 95 -18 112 -19 125 -6 22 21 4 34 -160
118 -80 40 -173 88 -208 105 -95 49 -190 156 -237 267 -79 185 -72 416 16 564
5 8 12 22 16 30 35 80 228 256 358 326 176 94 306 150 475 203 139 43 252 55
443 47 499 -19 589 -24 1167 -57 102 -6 273 -14 380 -19 232 -10 428 -26 565
-45 55 -8 154 -21 220 -30 66 -9 159 -22 206 -30 47 -8 98 -15 114 -15 16 0
67 -7 114 -15 47 -8 133 -21 191 -30 258 -39 416 -67 517 -90 34 -8 73 -15 87
-15 27 0 185 -36 194 -44 7 -8 -10 -12 -118 -30 -169 -29 -247 -46 -403 -90
-71 -21 -250 -80 -317 -106 -30 -12 -66 -25 -80 -30 -54 -17 -316 -134 -422
-187 -145 -72 -357 -199 -505 -302 -64 -44 -254 -191 -273 -211 -3 -3 -34 -30
-70 -60 -157 -132 -410 -387 -583 -587 -88 -102 -119 -123 -180 -123 -9 0 -45
-7 -80 -16 -159 -40 -185 -47 -222 -58 -22 -7 -67 -21 -100 -31 -66 -19 -107
-34 -260 -93 -265 -102 -504 -250 -677 -421 -80 -78 -89 -91 -63 -91 8 0 15 3
15 8 0 4 8 12 19 17 10 6 68 39 127 75 165 99 359 185 529 235 33 10 78 24
100 30 22 7 67 21 100 30 33 10 78 24 100 30 22 7 67 20 100 30 33 9 78 23
100 30 59 19 104 26 110 16 3 -5 -5 -22 -18 -38 -81 -97 -329 -468 -473 -706
-32 -54 -67 -110 -76 -125 -9 -15 -23 -37 -30 -49 -11 -19 -71 -115 -111 -177
-47 -74 -225 -338 -249 -368 -28 -36 -60 -49 -73 -29 -3 6 -18 16 -33 24 -15
7 -67 35 -117 62 -140 75 -703 357 -775 388 -36 16 -78 34 -95 42 -185 82
-489 149 -960 211 -194 26 -572 26 -680 0 -377 -91 -711 -301 -922 -581 -58
-78 -153 -257 -153 -290 0 -9 -5 -25 -10 -35 -19 -36 -43 -195 -43 -295 -1
-110 16 -267 40 -360 21 -84 51 -182 62 -203 5 -9 19 -37 31 -62 140 -291 413
-484 810 -574 180 -41 272 -49 545 -49 306 -1 425 13 680 80 183 47 442 144
545 203 8 5 35 19 60 31 117 58 309 183 450 292 85 67 157 124 160 127 3 4 39
35 80 70 100 84 323 312 435 443 67 79 96 106 114 106 14 1 66 -19 115 -43 50
-24 111 -51 136 -61 25 -9 57 -23 72 -31 14 -8 33 -14 42 -14 8 0 30 -6 48
-14 18 -7 58 -21 88 -29 242 -68 431 -97 675 -103 77 -2 145 -4 151 -4 7 0 13
-48 17 -137 6 -141 19 -197 67 -308 35 -80 39 -88 60 -120 11 -16 23 -37 27
-45 38 -83 313 -387 448 -495 28 -22 63 -52 79 -67 43 -41 55 -19 19 34 -16
24 -32 50 -36 58 -4 8 -23 42 -42 75 -46 79 -119 229 -140 285 -74 206 -115
426 -115 611 0 125 5 139 53 139 16 0 61 7 101 16 298 68 504 178 717 382 89
85 209 234 209 259 0 4 6 14 13 22 36 43 95 222 116 352 25 155 -3 454 -55
577 -8 18 -14 40 -14 48 0 9 -6 28 -14 42 -7 15 -30 62 -52 105 -49 100 -142
216 -233 292 -40 33 -76 62 -81 63 -24 9 -13 40 57 157 7 11 15 27 19 35 4 8
26 44 49 80 23 36 52 83 65 105 65 110 210 321 344 500 82 110 152 202 155
205 4 3 26 30 51 60 77 94 111 131 240 260 219 219 384 328 570 375 103 27
318 14 413 -24 61 -24 107 -5 71 28 -23 21 -77 43 -164 66 -82 22 -161 43
-225 60 -27 7 -75 20 -105 28 -97 27 -257 69 -345 91 -33 8 -87 21 -120 29
-57 15 -118 30 -230 57 -27 7 -68 16 -90 20 -47 9 -120 26 -191 46 -28 8 -59
14 -69 14 -10 0 -41 6 -69 14 -28 8 -87 22 -131 31 -44 10 -107 23 -140 30
-119 26 -258 54 -420 85 -33 6 -89 15 -125 20 -36 4 -92 13 -125 18 -331 60
-716 108 -1180 147 -199 17 -865 28 -960 16z m3366 -1018 c-5 -10 -20 -29 -33
-43 -13 -14 -61 -70 -107 -125 -46 -55 -93 -111 -104 -125 -42 -49 -175 -226
-221 -292 -25 -38 -67 -98 -93 -135 -62 -90 -125 -184 -138 -205 -11 -19 -89
-143 -117 -186 -10 -15 -22 -36 -28 -47 -6 -11 -19 -33 -30 -50 -11 -16 -23
-37 -27 -45 -5 -9 -23 -41 -41 -73 -37 -63 -56 -70 -129 -43 -107 38 -358 76
-511 76 -65 0 -122 3 -125 6 -23 23 363 451 568 629 44 39 82 72 85 75 17 18
203 162 240 187 25 16 74 50 110 74 36 25 72 48 80 52 8 4 29 16 45 26 87 56
357 190 425 212 14 4 48 17 75 27 66 27 89 28 76 5z m-1313 -1462 c100 -21
229 -69 236 -88 5 -11 -18 -58 -110 -228 -107 -199 -264 -529 -354 -745 -28
-69 -57 -138 -64 -155 -20 -45 -49 -122 -86 -225 -6 -19 -16 -53 -20 -76 -5
-22 -13 -51 -18 -65 -6 -13 -17 -60 -27 -104 -9 -44 -23 -109 -30 -145 -8 -36
-16 -89 -19 -119 -3 -29 -10 -59 -16 -66 -19 -23 -109 -26 -285 -10 -199 18
-279 32 -450 81 -200 57 -458 162 -463 188 -2 8 14 41 36 73 42 63 186 276
357 528 167 247 621 927 705 1057 41 65 82 119 90 122 37 13 433 -5 518 -23z
m557 -315 c256 -289 316 -796 136 -1140 -85 -163 -198 -273 -396 -384 -96 -54
-335 -142 -385 -142 -14 0 -12 34 4 99 8 31 22 92 31 136 9 44 23 103 30 130
7 28 21 79 30 115 9 36 22 85 29 110 8 25 21 72 31 105 10 33 23 76 30 95 7
19 18 51 24 70 7 19 17 49 21 65 8 29 18 54 60 165 12 30 25 67 30 81 4 14 12
34 18 45 6 10 27 60 47 109 72 174 183 405 195 405 5 0 34 -29 65 -64z m-4750
-737 c131 -10 254 -27 400 -55 140 -27 374 -88 445 -117 14 -5 39 -13 55 -18
44 -12 202 -67 222 -78 10 -5 59 -26 108 -46 152 -63 384 -174 520 -250 33
-19 74 -41 90 -49 98 -50 165 -95 165 -111 0 -17 -160 -226 -245 -321 -11 -12
-47 -54 -80 -92 -131 -155 -388 -395 -570 -533 -67 -52 -243 -169 -252 -169
-4 0 -14 -6 -22 -13 -24 -20 -158 -75 -286 -118 -174 -57 -239 -73 -495 -120
-36 -6 -171 -14 -300 -16 -243 -5 -313 1 -460 43 -71 21 -201 74 -221 91 -8 7
-19 13 -22 13 -17 0 -145 97 -202 153 -167 165 -263 390 -280 657 -17 273 54
481 228 667 99 105 370 296 522 367 22 10 48 22 57 27 54 28 186 67 283 84 92
16 181 17 340 4z"/>
</g>
</svg>
